<?xml version="1.0" standalone="no"?>
<!DOCTYPE svg PUBLIC "-//W3C//DTD SVG 20010904//EN"
 "http://www.w3.org/TR/2001/REC-SVG-20010904/DTD/svg10.dtd">
<svg version="1.0" xmlns="http://www.w3.org/2000/svg"
 width="500.000000pt" height="500.000000pt" viewBox="0 0 500.000000 500.000000"
 preserveAspectRatio="xMidYMid meet">

<g transform="translate(0.000000,500.000000) scale(0.100000,-0.100000)"
fill="#000000" stroke="none">
<path d="M2112 3513 c-22 -11 -74 -69 -154 -175 -67 -88 -137 -170 -157 -183
-19 -13 -81 -43 -138 -66 -149 -60 -143 -47 -143 -304 0 -241 -2 -235 80 -243
54 -5 54 -5 65 60 8 49 59 116 118 152 39 24 58 29 115 29 126 1 223 -81 246
-206 l7 -37 277 2 276 3 8 44 c19 113 118 194 238 194 127 1 213 -75 244 -215
l6 -28 115 0 c158 0 173 7 220 105 36 73 34 154 -5 231 -16 32 -30 67 -30 76
0 41 -45 67 -225 133 -206 75 -190 63 -357 269 -68 84 -127 147 -148 158 -31
16 -63 18 -330 18 -253 0 -300 -3 -328 -17z m68 -213 l0 -150 -130 0 c-71 0
-130 2 -130 5 0 11 210 283 222 288 37 15 38 10 38 -143z m560 140 c15 -8 146
-164 233 -277 7 -10 -63 -13 -347 -13 l-356 0 0 150 0 150 226 0 c135 0 233
-4 244 -10z m208 -479 c2 -106 -1 -146 -10 -152 -7 -4 -16 -5 -20 -3 -4 3 -8
73 -8 155 0 138 1 150 18 147 15 -3 17 -19 20 -147z m-663 97 c3 -13 4 -120 3
-238 -3 -195 -5 -215 -20 -218 -17 -3 -18 13 -18 237 0 206 2 241 15 241 8 0
17 -10 20 -22z m209 -44 c10 -27 -13 -44 -59 -44 -55 0 -75 8 -75 29 0 27 9
31 71 31 43 0 58 -4 63 -16z m1027 -259 c0 -27 -4 -61 -9 -75 -9 -24 -10 -24
-21 15 -6 22 -11 49 -11 60 0 11 5 38 11 60 11 39 12 39 21 15 5 -14 9 -47 9
-75z"/>
<path d="M1837 2725 c-156 -55 -169 -276 -22 -353 39 -20 131 -20 170 0 64 34
106 98 107 162 1 62 -19 111 -62 150 -59 53 -123 67 -193 41z m139 -109 c24
-24 34 -43 34 -66 0 -124 -171 -153 -210 -36 -22 68 29 136 103 136 31 0 46
-7 73 -34z"/>
<path d="M2887 2725 c-156 -55 -170 -275 -22 -353 39 -20 131 -20 170 0 65 34
105 96 107 162 1 64 -18 110 -62 150 -59 53 -123 67 -193 41z m139 -109 c24
-24 34 -43 34 -66 0 -124 -171 -153 -210 -36 -22 68 29 136 103 136 31 0 46
-7 73 -34z"/>
</g>
</svg>
